<?xml version="1.0" encoding="us-ascii" standalone="no"?><svg xmlns="http://www.w3.org/2000/svg" xmlns:xlink="http://www.w3.org/1999/xlink" contentStyleType="text/css" height="528px" preserveAspectRatio="none" style="width:1335px;height:528px;background:#FFFFFF;" version="1.1" viewBox="0 0 1335 528" width="1335px" zoomAndPan="magnify"><defs/><g><rect fill="#FFFFFF" height="428.3477" style="stroke:#181818;stroke-width:1.0;" width="10" x="25.5" y="46.4883"/><rect fill="#FFFFFF" height="416.0371" style="stroke:#181818;stroke-width:1.0;" width="10" x="271.5" y="67.7988"/><rect fill="#FFFFFF" height="306.1055" style="stroke:#181818;stroke-width:1.0;" width="10" x="527.5" y="139.4199"/><rect fill="#FFFFFF" height="130.2422" style="stroke:#181818;stroke-width:1.0;" width="10" x="755" y="285.9727"/><rect fill="#FFFFFF" height="29.3105" style="stroke:#181818;stroke-width:1.0;" width="10" x="964.5" y="168.7305"/><rect fill="#FFFFFF" height="29.3105" style="stroke:#181818;stroke-width:1.0;" width="10" x="1176" y="227.3516"/><rect fill="#FFFFFF" height="71.6211" style="stroke:#181818;stroke-width:1.0;" width="10" x="1176" y="315.2832"/><line style="stroke:#181818;stroke-width:0.5;stroke-dasharray:5.0,5.0;" x1="30" x2="30" y1="36.4883" y2="492.8359"/><line style="stroke:#181818;stroke-width:0.5;stroke-dasharray:5.0,5.0;" x1="276.5" x2="276.5" y1="36.4883" y2="492.8359"/><line style="stroke:#181818;stroke-width:0.5;stroke-dasharray:5.0,5.0;" x1="532" x2="532" y1="36.4883" y2="492.8359"/><line style="stroke:#181818;stroke-width:0.5;stroke-dasharray:5.0,5.0;" x1="760" x2="760" y1="36.4883" y2="492.8359"/><line style="stroke:#181818;stroke-width:0.5;stroke-dasharray:5.0,5.0;" x1="969" x2="969" y1="36.4883" y2="492.8359"/><line style="stroke:#181818;stroke-width:0.5;stroke-dasharray:5.0,5.0;" x1="1181" x2="1181" y1="36.4883" y2="492.8359"/><rect fill="#E2E2F0" height="30.4883" rx="2.5" ry="2.5" style="stroke:#181818;stroke-width:0.5;" width="51" x="5" y="5"/><text fill="#000000" font-family="sans-serif" font-size="14" lengthAdjust="spacing" textLength="37" x="12" y="25.5352">:Main</text><rect fill="#E2E2F0" height="30.4883" rx="2.5" ry="2.5" style="stroke:#181818;stroke-width:0.5;" width="51" x="5" y="491.8359"/><text fill="#000000" font-family="sans-serif" font-size="14" lengthAdjust="spacing" textLength="37" x="12" y="512.3711">:Main</text><rect fill="#E2E2F0" height="30.4883" rx="2.5" ry="2.5" style="stroke:#181818;stroke-width:0.5;" width="100" x="226.5" y="5"/><text fill="#000000" font-family="sans-serif" font-size="14" lengthAdjust="spacing" textLength="86" x="233.5" y="25.5352">:MenuLaprUI</text><rect fill="#E2E2F0" height="30.4883" rx="2.5" ry="2.5" style="stroke:#181818;stroke-width:0.5;" width="100" x="226.5" y="491.8359"/><text fill="#000000" font-family="sans-serif" font-size="14" lengthAdjust="spacing" textLength="86" x="233.5" y="512.3711">:MenuLaprUI</text><rect fill="#E2E2F0" height="30.4883" rx="2.5" ry="2.5" style="stroke:#181818;stroke-width:0.5;" width="225" x="420" y="5"/><text fill="#000000" font-family="sans-serif" font-size="14" lengthAdjust="spacing" textLength="211" x="427" y="25.5352">:RegisterWateringInDatabaseUI</text><rect fill="#E2E2F0" height="30.4883" rx="2.5" ry="2.5" style="stroke:#181818;stroke-width:0.5;" width="225" x="420" y="491.8359"/><text fill="#000000" font-family="sans-serif" font-size="14" lengthAdjust="spacing" textLength="211" x="427" y="512.3711">:RegisterWateringInDatabaseUI</text><rect fill="#E2E2F0" height="30.4883" rx="2.5" ry="2.5" style="stroke:#181818;stroke-width:0.5;" width="210" x="655" y="5"/><text fill="#000000" font-family="sans-serif" font-size="14" lengthAdjust="spacing" textLength="196" x="662" y="25.5352">:RegistarOperacaoController</text><rect fill="#E2E2F0" height="30.4883" rx="2.5" ry="2.5" style="stroke:#181818;stroke-width:0.5;" width="210" x="655" y="491.8359"/><text fill="#000000" font-family="sans-serif" font-size="14" lengthAdjust="spacing" textLength="196" x="662" y="512.3711">:RegistarOperacaoController</text><rect fill="#E2E2F0" height="30.4883" rx="2.5" ry="2.5" style="stroke:#181818;stroke-width:0.5;" width="189" x="875" y="5"/><text fill="#000000" font-family="sans-serif" font-size="14" lengthAdjust="spacing" textLength="175" x="882" y="25.5352">repositories :Repositories</text><rect fill="#E2E2F0" height="30.4883" rx="2.5" ry="2.5" style="stroke:#181818;stroke-width:0.5;" width="189" x="875" y="491.8359"/><text fill="#000000" font-family="sans-serif" font-size="14" lengthAdjust="spacing" textLength="175" x="882" y="512.3711">repositories :Repositories</text><rect fill="#E2E2F0" height="30.4883" rx="2.5" ry="2.5" style="stroke:#181818;stroke-width:0.5;" width="214" x="1074" y="5"/><text fill="#000000" font-family="sans-serif" font-size="14" lengthAdjust="spacing" textLength="200" x="1081" y="25.5352">:IrrigationProgramRepository</text><rect fill="#E2E2F0" height="30.4883" rx="2.5" ry="2.5" style="stroke:#181818;stroke-width:0.5;" width="214" x="1074" y="491.8359"/><text fill="#000000" font-family="sans-serif" font-size="14" lengthAdjust="spacing" textLength="200" x="1081" y="512.3711">:IrrigationProgramRepository</text><rect fill="#FFFFFF" height="428.3477" style="stroke:#181818;stroke-width:1.0;" width="10" x="25.5" y="46.4883"/><rect fill="#FFFFFF" height="416.0371" style="stroke:#181818;stroke-width:1.0;" width="10" x="271.5" y="67.7988"/><rect fill="#FFFFFF" height="306.1055" style="stroke:#181818;stroke-width:1.0;" width="10" x="527.5" y="139.4199"/><rect fill="#FFFFFF" height="130.2422" style="stroke:#181818;stroke-width:1.0;" width="10" x="755" y="285.9727"/><rect fill="#FFFFFF" height="29.3105" style="stroke:#181818;stroke-width:1.0;" width="10" x="964.5" y="168.7305"/><rect fill="#FFFFFF" height="29.3105" style="stroke:#181818;stroke-width:1.0;" width="10" x="1176" y="227.3516"/><rect fill="#FFFFFF" height="71.6211" style="stroke:#181818;stroke-width:1.0;" width="10" x="1176" y="315.2832"/><polygon fill="#181818" points="259.5,63.7988,269.5,67.7988,259.5,71.7988,263.5,67.7988" style="stroke:#181818;stroke-width:1.0;"/><line style="stroke:#181818;stroke-width:1.0;" x1="35.5" x2="265.5" y1="67.7988" y2="67.7988"/><text fill="#000000" font-family="sans-serif" font-size="13" font-weight="bold" lengthAdjust="spacing" textLength="9" x="42.5" y="63.0566">1</text><text fill="#000000" font-family="sans-serif" font-size="13" lengthAdjust="spacing" textLength="204" x="55.5" y="63.0566">executeScheduledRegistrations()</text><line style="stroke:#181818;stroke-width:1.0;" x1="281.5" x2="323.5" y1="97.1094" y2="97.1094"/><line style="stroke:#181818;stroke-width:1.0;" x1="323.5" x2="323.5" y1="97.1094" y2="110.1094"/><line style="stroke:#181818;stroke-width:1.0;" x1="282.5" x2="323.5" y1="110.1094" y2="110.1094"/><polygon fill="#181818" points="292.5,106.1094,282.5,110.1094,292.5,114.1094,288.5,110.1094" style="stroke:#181818;stroke-width:1.0;"/><text fill="#000000" font-family="sans-serif" font-size="13" font-weight="bold" lengthAdjust="spacing" textLength="9" x="288.5" y="92.3672">2</text><text fill="#000000" font-family="sans-serif" font-size="13" lengthAdjust="spacing" textLength="167" x="301.5" y="92.3672">newScheduledThreadPool()</text><polygon fill="#181818" points="515.5,135.4199,525.5,139.4199,515.5,143.4199,519.5,139.4199" style="stroke:#181818;stroke-width:1.0;"/><line style="stroke:#181818;stroke-width:1.0;" x1="281.5" x2="521.5" y1="139.4199" y2="139.4199"/><text fill="#000000" font-family="sans-serif" font-size="13" font-weight="bold" lengthAdjust="spacing" textLength="9" x="288.5" y="134.6777">3</text><text fill="#000000" font-family="sans-serif" font-size="13" lengthAdjust="spacing" textLength="214" x="301.5" y="134.6777">wateringUI.scheduledRegistation()</text><polygon fill="#181818" points="952.5,164.7305,962.5,168.7305,952.5,172.7305,956.5,168.7305" style="stroke:#181818;stroke-width:1.0;"/><line style="stroke:#181818;stroke-width:1.0;" x1="537.5" x2="958.5" y1="168.7305" y2="168.7305"/><text fill="#000000" font-family="sans-serif" font-size="13" font-weight="bold" lengthAdjust="spacing" textLength="9" x="544.5" y="163.9883">4</text><text fill="#000000" font-family="sans-serif" font-size="13" lengthAdjust="spacing" textLength="213" x="557.5" y="163.9883">getIrrigationProgramRepository()&#181;</text><polygon fill="#181818" points="548.5,194.041,538.5,198.041,548.5,202.041,544.5,198.041" style="stroke:#181818;stroke-width:1.0;"/><line style="stroke:#181818;stroke-width:1.0;stroke-dasharray:2.0,2.0;" x1="542.5" x2="968.5" y1="198.041" y2="198.041"/><text fill="#000000" font-family="sans-serif" font-size="13" font-weight="bold" lengthAdjust="spacing" textLength="9" x="554.5" y="193.2988">5</text><text fill="#000000" font-family="sans-serif" font-size="13" lengthAdjust="spacing" textLength="177" x="567.5" y="193.2988">irrigationProgramRepository</text><polygon fill="#181818" points="1164,223.3516,1174,227.3516,1164,231.3516,1168,227.3516" style="stroke:#181818;stroke-width:1.0;"/><line style="stroke:#181818;stroke-width:1.0;" x1="537.5" x2="1170" y1="227.3516" y2="227.3516"/><text fill="#000000" font-family="sans-serif" font-size="13" font-weight="bold" lengthAdjust="spacing" textLength="9" x="544.5" y="222.6094">6</text><text fill="#000000" font-family="sans-serif" font-size="13" lengthAdjust="spacing" textLength="142" x="557.5" y="222.6094">getIrrigationArrayList()</text><polygon fill="#181818" points="548.5,252.6621,538.5,256.6621,548.5,260.6621,544.5,256.6621" style="stroke:#181818;stroke-width:1.0;"/><line style="stroke:#181818;stroke-width:1.0;stroke-dasharray:2.0,2.0;" x1="542.5" x2="1180" y1="256.6621" y2="256.6621"/><text fill="#000000" font-family="sans-serif" font-size="13" font-weight="bold" lengthAdjust="spacing" textLength="9" x="554.5" y="251.9199">7</text><text fill="#000000" font-family="sans-serif" font-size="13" lengthAdjust="spacing" textLength="114" x="567.5" y="251.9199">irrigationArrayList</text><polygon fill="#181818" points="743,281.9727,753,285.9727,743,289.9727,747,285.9727" style="stroke:#181818;stroke-width:1.0;"/><line style="stroke:#181818;stroke-width:1.0;" x1="537.5" x2="749" y1="285.9727" y2="285.9727"/><text fill="#000000" font-family="sans-serif" font-size="13" font-weight="bold" lengthAdjust="spacing" textLength="9" x="544.5" y="281.2305">8</text><text fill="#000000" font-family="sans-serif" font-size="13" lengthAdjust="spacing" textLength="113" x="557.5" y="281.2305">wateringRegister()</text><polygon fill="#181818" points="1164,311.2832,1174,315.2832,1164,319.2832,1168,315.2832" style="stroke:#181818;stroke-width:1.0;"/><line style="stroke:#181818;stroke-width:1.0;" x1="765" x2="1170" y1="315.2832" y2="315.2832"/><text fill="#000000" font-family="sans-serif" font-size="13" font-weight="bold" lengthAdjust="spacing" textLength="9" x="772" y="310.541">9</text><text fill="#000000" font-family="sans-serif" font-size="13" lengthAdjust="spacing" textLength="113" x="785" y="310.541">wateringRegister()</text><line style="stroke:#181818;stroke-width:1.0;" x1="1186" x2="1228" y1="344.5938" y2="344.5938"/><line style="stroke:#181818;stroke-width:1.0;" x1="1228" x2="1228" y1="344.5938" y2="357.5938"/><line style="stroke:#181818;stroke-width:1.0;" x1="1187" x2="1228" y1="357.5938" y2="357.5938"/><polygon fill="#181818" points="1197,353.5938,1187,357.5938,1197,361.5938,1193,357.5938" style="stroke:#181818;stroke-width:1.0;"/><text fill="#000000" font-family="sans-serif" font-size="13" font-weight="bold" lengthAdjust="spacing" textLength="18" x="1193" y="339.8516">10</text><text fill="#000000" font-family="sans-serif" font-size="13" lengthAdjust="spacing" textLength="113" x="1215" y="339.8516">CallableStatement</text><polygon fill="#181818" points="776,382.9043,766,386.9043,776,390.9043,772,386.9043" style="stroke:#181818;stroke-width:1.0;"/><line style="stroke:#181818;stroke-width:1.0;stroke-dasharray:2.0,2.0;" x1="770" x2="1180" y1="386.9043" y2="386.9043"/><text fill="#000000" font-family="sans-serif" font-size="13" font-weight="bold" lengthAdjust="spacing" textLength="18" x="782" y="382.1621">11</text><text fill="#000000" font-family="sans-serif" font-size="13" lengthAdjust="spacing" textLength="4" x="804" y="382.1621">&#160;</text><polygon fill="#181818" points="548.5,412.2148,538.5,416.2148,548.5,420.2148,544.5,416.2148" style="stroke:#181818;stroke-width:1.0;"/><line style="stroke:#181818;stroke-width:1.0;stroke-dasharray:2.0,2.0;" x1="542.5" x2="759" y1="416.2148" y2="416.2148"/><text fill="#000000" font-family="sans-serif" font-size="13" font-weight="bold" lengthAdjust="spacing" textLength="18" x="554.5" y="411.4727">12</text><text fill="#000000" font-family="sans-serif" font-size="13" lengthAdjust="spacing" textLength="4" x="576.5" y="411.4727">&#160;</text><polygon fill="#181818" points="292.5,441.5254,282.5,445.5254,292.5,449.5254,288.5,445.5254" style="stroke:#181818;stroke-width:1.0;"/><line style="stroke:#181818;stroke-width:1.0;stroke-dasharray:2.0,2.0;" x1="286.5" x2="531.5" y1="445.5254" y2="445.5254"/><text fill="#000000" font-family="sans-serif" font-size="13" font-weight="bold" lengthAdjust="spacing" textLength="18" x="298.5" y="440.7832">13</text><text fill="#000000" font-family="sans-serif" font-size="13" lengthAdjust="spacing" textLength="4" x="320.5" y="440.7832">&#160;</text><polygon fill="#181818" points="41.5,470.8359,31.5,474.8359,41.5,478.8359,37.5,474.8359" style="stroke:#181818;stroke-width:1.0;"/><line style="stroke:#181818;stroke-width:1.0;stroke-dasharray:2.0,2.0;" x1="35.5" x2="270.5" y1="474.8359" y2="474.8359"/><text fill="#000000" font-family="sans-serif" font-size="13" font-weight="bold" lengthAdjust="spacing" textLength="18" x="47.5" y="470.0938">14</text><text fill="#000000" font-family="sans-serif" font-size="13" lengthAdjust="spacing" textLength="4" x="69.5" y="470.0938">&#160;</text><!--SRC=[ZLH1Ri8m4Bpd5HQNmW5ovr2fefT8L4MbgESbMGLBZfskdL8UrW_qPNK2f4vmJ2vMhDsPySpQUJWOK-fb79S2fAaAiKXL4Mlyh52cECyuv0H5545bbAoAFL9K0XcUyjBsiydo1RYSCD2i_kZNK5PhA6cND1sxf5T_mvnhW_G1Tk4oJ-Gp6DY3nWkYtp300FHQ8a4AQgMa8IK4aeFtbRiyXANIt2ZYg9ab_TyrD6wvTu24YETWk98RKdLKBVZKGFbmtOQQ6lvbhPspgnSsVxGniIN3RqmhWzlqW5abC3ixeOP9JsSErcPY4LUSn6EBUJyGGhPHIbZ0kUSsK8ivjfk5xkerSXqrpqGyd5Qf6odBqGIYciv-VnoHJjuTelcGXr3E6VgP1quUeEeRUIA2qzfos8nQZU38G-GZpBM2hgcWeD_ZyCDmxiCLwfeBlAWeG7etLe_ck4I3WTvJNO4Gi1UujJST2vHcx82y0OmTIJ0exnrmgKCJy4wx-JNSCdJueqjZyoDoMklz7m00]--></g></svg>